<?xml version="1.0" encoding="UTF-8"?>
<svg xmlns="http://www.w3.org/2000/svg" xmlns:xlink="http://www.w3.org/1999/xlink" width="50px" height="50px" viewBox="0 0 50 50" version="1.1">
<g id="surface1">
<path style=" stroke:none;fill-rule:nonzero;fill:rgb(25.882354%,52.156866%,95.686275%);fill-opacity:1;" d="M 34.375 7.03125 L 34.375 16.40625 L 15.625 16.40625 L 15.625 33.59375 L 6.25 33.59375 L 6.25 10.15625 C 6.253906 8.433594 7.652344 7.035156 9.375 7.03125 Z M 34.375 7.03125 "/>
<path style=" stroke:none;fill-rule:nonzero;fill:rgb(91.764706%,26.666668%,20.784314%);fill-opacity:1;" d="M 34.375 42.96875 L 34.375 33.59375 L 43.75 33.59375 Z M 34.375 42.96875 "/>
<path style=" stroke:none;fill-rule:nonzero;fill:rgb(100%,72.941178%,0%);fill-opacity:1;" d="M 34.375 14.84375 L 43.75 14.84375 L 43.75 33.59375 L 34.375 33.59375 Z M 34.375 14.84375 "/>
<path style=" stroke:none;fill-rule:nonzero;fill:rgb(0%,67.450982%,27.843139%);fill-opacity:1;" d="M 34.375 33.59375 L 34.375 42.96875 L 15.625 42.96875 L 15.625 33.59375 Z M 34.375 33.59375 "/>
<path style=" stroke:none;fill-rule:nonzero;fill:rgb(0%,40.000001%,85.490197%);fill-opacity:1;" d="M 43.75 10.15625 L 43.75 16.40625 L 34.375 16.40625 L 34.375 7.03125 L 40.625 7.03125 C 42.347656 7.035156 43.746094 8.433594 43.75 10.15625 Z M 43.75 10.15625 "/>
<path style=" stroke:none;fill-rule:nonzero;fill:rgb(9.411765%,50.196081%,21.960784%);fill-opacity:1;" d="M 15.625 33.59375 L 15.625 42.96875 L 9.375 42.96875 C 7.652344 42.964844 6.253906 41.566406 6.25 39.84375 L 6.25 33.59375 Z M 15.625 33.59375 "/>
<path style=" stroke:none;fill-rule:nonzero;fill:rgb(25.882354%,52.156866%,95.686275%);fill-opacity:1;" d="M 24.515625 26.703125 C 24.515625 28.09375 23.484375 29.5 21.15625 29.5 C 20.324219 29.511719 19.503906 29.300781 18.78125 28.890625 L 18.65625 28.796875 L 19.109375 27.515625 L 19.3125 27.640625 C 19.863281 27.976562 20.496094 28.15625 21.140625 28.171875 C 21.644531 28.203125 22.140625 28.027344 22.515625 27.6875 C 22.785156 27.417969 22.925781 27.050781 22.90625 26.671875 C 22.890625 25.53125 21.84375 25.125 20.859375 25.125 L 20.015625 25.125 L 20.015625 23.859375 L 20.859375 23.859375 C 21.5625 23.859375 22.609375 23.515625 22.609375 22.578125 C 22.609375 21.875 22.125 21.46875 21.28125 21.46875 C 20.699219 21.480469 20.132812 21.667969 19.65625 22 L 19.4375 22.15625 L 19 20.921875 L 19.109375 20.828125 C 19.824219 20.371094 20.652344 20.125 21.5 20.125 C 23.359375 20.125 24.1875 21.265625 24.1875 22.390625 C 24.191406 23.253906 23.699219 24.042969 22.921875 24.421875 C 23.890625 24.757812 24.53125 25.679688 24.515625 26.703125 Z M 24.515625 26.703125 "/>
<path style=" stroke:none;fill-rule:nonzero;fill:rgb(25.882354%,52.156866%,95.686275%);fill-opacity:1;" d="M 29.234375 20.28125 L 29.234375 29.359375 L 27.703125 29.359375 L 27.703125 21.875 L 26.234375 22.671875 L 25.90625 21.390625 L 28.046875 20.28125 Z M 29.234375 20.28125 "/>
</g>
</svg>
